<svg width="30" height="30" viewBox="0 0 30 30" fill="none" xmlns="http://www.w3.org/2000/svg">
<path d="M20.8929 30H0.535714C0.393634 30 0.257373 29.9436 0.156907 29.8431C0.0564413 29.7427 0 29.6064 0 29.4643V20.8929C0 20.7508 0.0564413 20.6146 0.156907 20.5141C0.257373 20.4136 0.393634 20.3572 0.535714 20.3572H8.03571C8.17779 20.3572 8.31406 20.4136 8.41452 20.5141C8.51499 20.6146 8.57143 20.7508 8.57143 20.8929C8.57143 21.4612 8.79719 22.0063 9.19906 22.4081C9.60092 22.81 10.146 23.0357 10.7143 23.0357C11.2826 23.0357 11.8277 22.81 12.2295 22.4081C12.6314 22.0063 12.8571 21.4612 12.8571 20.8929C12.8571 20.7508 12.9136 20.6146 13.014 20.5141C13.1145 20.4136 13.2508 20.3572 13.3929 20.3572H20.8929C21.0349 20.3572 21.1712 20.4136 21.2717 20.5141C21.3721 20.6146 21.4286 20.7508 21.4286 20.8929V29.4643C21.4286 29.6064 21.3721 29.7427 21.2717 29.8431C21.1712 29.9436 21.0349 30 20.8929 30ZM1.07143 28.9286H20.3571V21.4286H13.8857C13.7617 22.1802 13.3748 22.8634 12.794 23.3563C12.2131 23.8492 11.4761 24.1198 10.7143 24.1198C9.95249 24.1198 9.21546 23.8492 8.63461 23.3563C8.05375 22.8634 7.66684 22.1802 7.54286 21.4286H1.07143V28.9286Z" fill="#FFCD4D"/>
<path d="M29.4643 30H20.8929C20.7508 30 20.6146 29.9436 20.5141 29.8431C20.4136 29.7427 20.3572 29.6064 20.3572 29.4643V20.8929C20.3572 20.7508 20.4136 20.6146 20.5141 20.5141C20.6146 20.4136 20.7508 20.3572 20.8929 20.3572H29.4643C29.6064 20.3572 29.7427 20.4136 29.8431 20.5141C29.9436 20.6146 30 20.7508 30 20.8929V29.4643C30 29.6064 29.9436 29.7427 29.8431 29.8431C29.7427 29.9436 29.6064 30 29.4643 30ZM21.4286 28.9286H28.9286V21.4286H21.4286V28.9286Z" fill="#FFCD4D"/>
<path d="M10.7143 24.1071C9.95436 24.1076 9.2188 23.8389 8.63821 23.3485C8.05762 22.8581 7.66955 22.1779 7.54289 21.4286H2.14289C2.00081 21.4286 1.86455 21.3721 1.76408 21.2717C1.66362 21.1712 1.60718 21.0349 1.60718 20.8929V3.21429C1.60718 2.3618 1.94582 1.54424 2.54862 0.941443C3.15142 0.338647 3.96898 0 4.82146 0H21.9643C22.1064 0 22.2427 0.0564413 22.3431 0.156907C22.4436 0.257373 22.5 0.393634 22.5 0.535714C22.5 0.677795 22.4436 0.814055 22.3431 0.914521C22.2427 1.01499 22.1064 1.07143 21.9643 1.07143C21.396 1.07143 20.851 1.29719 20.4491 1.69906C20.0472 2.10092 19.8215 2.64596 19.8215 3.21429V20.8929C19.8215 21.0349 19.765 21.1712 19.6646 21.2717C19.5641 21.3721 19.4278 21.4286 19.2857 21.4286H13.8857C13.7591 22.1779 13.371 22.8581 12.7904 23.3485C12.2098 23.8389 11.4743 24.1076 10.7143 24.1071ZM2.67861 20.3571H8.03575C8.17783 20.3571 8.31409 20.4136 8.41456 20.514C8.51502 20.6145 8.57146 20.7508 8.57146 20.8929C8.57146 21.4612 8.79723 22.0062 9.19909 22.4081C9.60096 22.8099 10.146 23.0357 10.7143 23.0357C11.2826 23.0357 11.8277 22.8099 12.2295 22.4081C12.6314 22.0062 12.8572 21.4612 12.8572 20.8929C12.8572 20.7508 12.9136 20.6145 13.0141 20.514C13.1145 20.4136 13.2508 20.3571 13.3929 20.3571H18.75V3.21429C18.7503 2.42349 19.0422 1.66057 19.5697 1.07143H4.82146C4.25314 1.07143 3.7081 1.29719 3.30623 1.69906C2.90437 2.10092 2.67861 2.64596 2.67861 3.21429V20.3571Z" fill="#FFCD4D"/>
<path d="M24.6429 5.35714H19.2857C19.1436 5.35714 19.0074 5.3007 18.9069 5.20024C18.8064 5.09977 18.75 4.96351 18.75 4.82143V3.21429C18.75 2.3618 19.0886 1.54424 19.6914 0.941443C20.2942 0.338647 21.1118 0 21.9643 0C22.8168 0 23.6343 0.338647 24.2371 0.941443C24.8399 1.54424 25.1786 2.3618 25.1786 3.21429V4.82143C25.1786 4.96351 25.1221 5.09977 25.0217 5.20024C24.9212 5.3007 24.7849 5.35714 24.6429 5.35714ZM19.8214 4.28571H24.1071V3.21429C24.1071 2.64596 23.8814 2.10092 23.4795 1.69906C23.0777 1.29719 22.5326 1.07143 21.9643 1.07143C21.396 1.07143 20.8509 1.29719 20.4491 1.69906C20.0472 2.10092 19.8214 2.64596 19.8214 3.21429V4.28571Z" fill="#FFCD4D"/>
<path d="M21.9643 21.4286H19.2857C19.1436 21.4286 19.0074 21.3721 18.9069 21.2717C18.8064 21.1712 18.75 21.035 18.75 20.8929V6.9643C18.75 6.82222 18.8064 6.68596 18.9069 6.5855C19.0074 6.48503 19.1436 6.42859 19.2857 6.42859H21.9643C22.1064 6.42859 22.2426 6.48503 22.3431 6.5855C22.4436 6.68596 22.5 6.82222 22.5 6.9643V20.8929C22.5 21.035 22.4436 21.1712 22.3431 21.2717C22.2426 21.3721 22.1064 21.4286 21.9643 21.4286ZM19.8214 20.3572H21.4286V7.50002H19.8214V20.3572Z" fill="#FFCD4D"/>
<path d="M24.6429 21.4286H21.9643C21.8222 21.4286 21.686 21.3721 21.5855 21.2717C21.485 21.1712 21.4286 21.0349 21.4286 20.8929V8.03571C21.4286 7.89363 21.485 7.75737 21.5855 7.65691C21.686 7.55644 21.8222 7.5 21.9643 7.5H24.6429C24.785 7.5 24.9212 7.55644 25.0217 7.65691C25.1221 7.75737 25.1786 7.89363 25.1786 8.03571V20.8929C25.1786 21.0349 25.1221 21.1712 25.0217 21.2717C24.9212 21.3721 24.785 21.4286 24.6429 21.4286ZM22.5 20.3571H24.1072V8.57143H22.5V20.3571Z" fill="#FFCD4D"/>
<path d="M27.3215 21.4286H24.6429C24.5008 21.4286 24.3646 21.3721 24.2641 21.2716C24.1636 21.1712 24.1072 21.0349 24.1072 20.8928V9.10713C24.1072 8.96505 24.1636 8.82878 24.2641 8.72832C24.3646 8.62785 24.5008 8.57141 24.6429 8.57141H27.3215C27.4635 8.57141 27.5998 8.62785 27.7003 8.72832C27.8007 8.82878 27.8572 8.96505 27.8572 9.10713V20.8928C27.8572 21.0349 27.8007 21.1712 27.7003 21.2716C27.5998 21.3721 27.4635 21.4286 27.3215 21.4286ZM25.1786 20.3571H26.7857V9.64284H25.1786V20.3571Z" fill="#FFCD4D"/>
<path d="M16.6071 7.50007H4.82142C4.67934 7.50007 4.54308 7.44363 4.44261 7.34316C4.34215 7.2427 4.28571 7.10644 4.28571 6.96436V3.75007C4.28571 3.60799 4.34215 3.47173 4.44261 3.37126C4.54308 3.2708 4.67934 3.21436 4.82142 3.21436H16.6071C16.7492 3.21436 16.8855 3.2708 16.9859 3.37126C17.0864 3.47173 17.1428 3.60799 17.1428 3.75007V6.96436C17.1428 7.10644 17.0864 7.2427 16.9859 7.34316C16.8855 7.44363 16.7492 7.50007 16.6071 7.50007ZM5.35713 6.42864H16.0714V4.28578H5.35713V6.42864Z" fill="#FFCD4D"/>
<path d="M10.1786 10.1786H4.82142C4.67934 10.1786 4.54308 10.1222 4.44261 10.0217C4.34215 9.92123 4.28571 9.78497 4.28571 9.64289C4.28571 9.50081 4.34215 9.36455 4.44261 9.26408C4.54308 9.16362 4.67934 9.10718 4.82142 9.10718H10.1786C10.3206 9.10718 10.4569 9.16362 10.5574 9.26408C10.6578 9.36455 10.7143 9.50081 10.7143 9.64289C10.7143 9.78497 10.6578 9.92123 10.5574 10.0217C10.4569 10.1222 10.3206 10.1786 10.1786 10.1786Z" fill="#FFCD4D"/>
<path d="M10.1786 12.8571H4.82142C4.67934 12.8571 4.54308 12.8006 4.44261 12.7002C4.34215 12.5997 4.28571 12.4634 4.28571 12.3214C4.28571 12.1793 4.34215 12.043 4.44261 11.9426C4.54308 11.8421 4.67934 11.7856 4.82142 11.7856H10.1786C10.3206 11.7856 10.4569 11.8421 10.5574 11.9426C10.6578 12.043 10.7143 12.1793 10.7143 12.3214C10.7143 12.4634 10.6578 12.5997 10.5574 12.7002C10.4569 12.8006 10.3206 12.8571 10.1786 12.8571Z" fill="#FFCD4D"/>
<path d="M16.6071 15.5358H4.82142C4.67934 15.5358 4.54308 15.4793 4.44261 15.3789C4.34215 15.2784 4.28571 15.1421 4.28571 15.0001C4.28571 14.858 4.34215 14.7217 4.44261 14.6213C4.54308 14.5208 4.67934 14.4644 4.82142 14.4644H16.6071C16.7492 14.4644 16.8855 14.5208 16.9859 14.6213C17.0864 14.7217 17.1428 14.858 17.1428 15.0001C17.1428 15.1421 17.0864 15.2784 16.9859 15.3789C16.8855 15.4793 16.7492 15.5358 16.6071 15.5358Z" fill="#FFCD4D"/>
<path d="M16.6071 18.2143H4.82142C4.67934 18.2143 4.54308 18.1578 4.44261 18.0573C4.34215 17.9569 4.28571 17.8206 4.28571 17.6785C4.28571 17.5365 4.34215 17.4002 4.44261 17.2997C4.54308 17.1993 4.67934 17.1428 4.82142 17.1428H16.6071C16.7492 17.1428 16.8855 17.1993 16.9859 17.2997C17.0864 17.4002 17.1428 17.5365 17.1428 17.6785C17.1428 17.8206 17.0864 17.9569 16.9859 18.0573C16.8855 18.1578 16.7492 18.2143 16.6071 18.2143Z" fill="#FFCD4D"/>
<path d="M16.6071 12.8572H12.3214C12.1793 12.8572 12.0431 12.8007 11.9426 12.7003C11.8421 12.5998 11.7857 12.4635 11.7857 12.3215V9.64289C11.7857 9.50081 11.8421 9.36455 11.9426 9.26408C12.0431 9.16362 12.1793 9.10718 12.3214 9.10718H16.6071C16.7492 9.10718 16.8855 9.16362 16.9859 9.26408C17.0864 9.36455 17.1428 9.50081 17.1428 9.64289V12.3215C17.1428 12.4635 17.0864 12.5998 16.9859 12.7003C16.8855 12.8007 16.7492 12.8572 16.6071 12.8572ZM12.8571 11.7857H16.0714V10.1786H12.8571V11.7857Z" fill="#FFCD4D"/>
</svg>
