<svg width="27" height="33" viewBox="0 0 27 33" fill="none" xmlns="http://www.w3.org/2000/svg">
<path d="M25.0453 5.80105C21.2242 5.48842 17.6463 3.85579 14.9368 1.14632L14.2421 0.416842C13.6863 -0.138947 12.7137 -0.138947 12.1579 0.416842L11.4632 1.14632C8.75368 3.85579 5.17579 5.48842 1.35474 5.80105C0.590526 5.87053 0 6.49579 0 7.26V11.4632C0 20.2863 4.79368 28.4842 12.4705 32.8263C12.6789 32.9653 12.9568 33 13.2 33C13.4432 33 13.6863 32.9305 13.9295 32.8263C21.6063 28.4842 26.4 20.2863 26.4 11.4632V7.22526C26.4 6.46105 25.8095 5.83579 25.0453 5.80105ZM23.4821 11.4632C23.4821 18.9663 19.5568 25.9484 13.2 29.8389C6.84316 25.9137 2.91789 18.9663 2.91789 11.4632V8.54526C6.77368 7.95474 10.3516 6.2179 13.2 3.50842C16.0137 6.2179 19.6263 7.95474 23.4821 8.54526V11.4632Z" fill="#FFCD4D"/>
<path d="M9.34419 15.041C8.7884 14.4852 7.85051 14.4852 7.25998 15.041C6.70419 15.5968 6.70419 16.5347 7.25998 17.1252L10.9421 20.8074C11.22 21.0852 11.6021 21.2242 11.9842 21.2242H12.0189C12.401 21.2242 12.7831 21.0505 13.061 20.7379L19.5221 13.6863C20.0779 13.0958 20.0431 12.1579 19.4179 11.6368C18.8274 11.081 17.8895 11.1158 17.3684 11.741L11.9495 17.6116L9.34419 15.041Z" fill="#FFCD4D"/>
</svg>
