<svg width="28" height="31" viewBox="0 0 28 31" fill="none" xmlns="http://www.w3.org/2000/svg">
<path d="M13.9988 0C16.6601 0 18.3796 1.81585 18.3796 4.62594C18.3796 5.50819 18.2101 6.38872 17.889 7.17378C17.1319 9.00858 15.6412 10.1486 13.9988 10.1486C12.3579 10.1486 10.8681 9.00858 10.11 7.17206C9.78959 6.38803 9.6204 5.5075 9.6204 4.62594C9.6204 1.81585 11.3391 0 13.9988 0ZM11.0712 6.76436C11.6636 8.19871 12.7852 9.08991 13.9988 9.08991C15.214 9.08991 16.3366 8.19871 16.9278 6.76574C17.1961 6.10991 17.338 5.37 17.338 4.62594C17.338 2.39241 16.0898 1.0587 13.9988 1.0587C11.9094 1.0587 10.662 2.39241 10.662 4.62594C10.662 5.36931 10.8037 6.10957 11.0712 6.76436Z" fill="#FFCD4D"/>
<path d="M2.48705 24.9343V21.3776C2.48705 21.0847 2.71966 20.8483 3.00784 20.8483H13.4792V18.3142H8.53847C8.25095 18.3142 8.01768 18.0771 8.01768 17.7849V12.3639C8.01768 11.7539 8.31164 11.1818 8.80429 10.8337L9.66821 10.2234C10.1375 9.89359 10.7678 9.90462 11.2343 10.2482C12.0677 10.8585 13.0235 11.1811 13.9988 11.1811C14.9758 11.1811 15.9325 10.8585 16.7643 10.2489C17.2329 9.90393 17.8627 9.89393 18.3335 10.2244L19.1959 10.8337C19.6884 11.1822 19.9823 11.7542 19.9823 12.3639V17.7849C19.9823 18.0771 19.7492 18.3142 19.4615 18.3142H14.5208V20.8483H24.9922C25.2803 20.8483 25.513 21.0847 25.513 21.3776V24.9343C26.9237 25.1861 28 26.4377 28 27.9428C28 29.6284 26.6507 31 24.9922 31C23.3336 31 21.9843 29.6284 21.9843 27.9428C21.9843 26.4377 23.0606 25.1862 24.4714 24.9343V21.907H14.5208V24.9343C15.9316 25.1861 17.0079 26.4377 17.0079 27.9428C17.0079 29.6284 15.6587 31 14 31C12.3417 31 10.9922 29.6284 10.9922 27.9428C10.9922 26.4377 12.0686 25.1862 13.4792 24.9343V21.907H3.52863V24.9343C4.93942 25.1862 6.01589 26.4377 6.01589 27.9428C6.01589 29.6284 4.66644 31 3.00777 31C1.34945 31 0 29.6284 0 27.9428C0 26.4377 1.07644 25.1862 2.48705 24.9343ZM18.9407 12.3639C18.9407 12.1006 18.8138 11.8535 18.601 11.7029L17.7403 11.0946C17.6321 11.0181 17.4887 11.0233 17.3745 11.107C16.3631 11.848 15.1957 12.2398 13.9988 12.2398C12.8035 12.2398 11.6371 11.848 10.624 11.1063C10.5111 11.0222 10.3677 11.0188 10.2612 11.0936L9.399 11.7029C9.18641 11.8531 9.05926 12.1002 9.05926 12.3639V17.2555H18.9407V12.3639ZM23.0259 27.9428C23.0259 29.0449 23.9079 29.9413 24.9922 29.9413C26.0764 29.9413 26.9584 29.0449 26.9584 27.9428C26.9584 26.8407 26.0764 25.944 24.9922 25.944C23.9079 25.944 23.0259 26.8407 23.0259 27.9428ZM12.0338 27.9428C12.0338 29.0449 12.9157 29.9413 14 29.9413C15.0843 29.9413 15.9664 29.0449 15.9664 27.9428C15.9664 26.8407 15.0843 25.944 14 25.944C12.9157 25.944 12.0338 26.8407 12.0338 27.9428ZM3.00777 29.9413C4.09208 29.9413 4.9743 29.0449 4.9743 27.9428C4.9743 26.8407 4.09208 25.944 3.00777 25.944C1.92347 25.944 1.04158 26.8407 1.04158 27.9428C1.04158 29.0449 1.92347 29.9413 3.00777 29.9413Z" fill="#FFCD4D"/>
</svg>
