<svg width="18" height="20" viewBox="0 0 18 20" fill="none" xmlns="http://www.w3.org/2000/svg">
<path d="M14.8065 0.336792H3.19355C2.34657 0.336792 1.53427 0.729614 0.935368 1.42884C0.336462 2.12807 0 3.07643 0 4.06528V16.2676C0 17.2565 0.336462 18.2048 0.935368 18.9041C1.53427 19.6033 2.34657 19.9961 3.19355 19.9961H14.8065C15.6534 19.9961 16.4657 19.6033 17.0646 18.9041C17.6635 18.2048 18 17.2565 18 16.2676V4.06528C18 3.07643 17.6635 2.12807 17.0646 1.42884C16.4657 0.729614 15.6534 0.336792 14.8065 0.336792ZM3.19355 2.37052H14.8065C15.1914 2.37052 15.5607 2.54907 15.8329 2.8669C16.1051 3.18473 16.2581 3.6158 16.2581 4.06528V5.59058L9 10.4071L1.74194 5.59058V4.06528C1.74194 3.6158 1.89487 3.18473 2.1671 2.8669C2.43933 2.54907 2.80856 2.37052 3.19355 2.37052ZM14.8065 17.9624H3.19355C2.80856 17.9624 2.43933 17.7838 2.1671 17.466C1.89487 17.1482 1.74194 16.7171 1.74194 16.2676V7.92936L8.35839 12.3358C8.54937 12.479 8.77157 12.5551 8.99855 12.5551C9.22553 12.5551 9.44773 12.479 9.63871 12.3358L16.2581 7.92936V16.2676C16.2581 16.7171 16.1051 17.1482 15.8329 17.466C15.5607 17.7838 15.1914 17.9624 14.8065 17.9624Z" fill="#050505"/>
</svg>
