<svg width="18" height="17" viewBox="0 0 18 17" fill="none" xmlns="http://www.w3.org/2000/svg">
<path d="M14.8065 0H3.19355C2.34657 0 1.53427 0.339685 0.935368 0.944328C0.336462 1.54897 0 2.36904 0 3.22414V13.7759C0 14.631 0.336462 15.451 0.935368 16.0557C1.53427 16.6603 2.34657 17 3.19355 17H14.8065C15.6534 17 16.4657 16.6603 17.0646 16.0557C17.6635 15.451 18 14.631 18 13.7759V3.22414C18 2.36904 17.6635 1.54897 17.0646 0.944328C16.4657 0.339685 15.6534 0 14.8065 0ZM3.19355 1.75862H14.8065C15.1914 1.75862 15.5607 1.91302 15.8329 2.18786C16.1051 2.4627 16.2581 2.83546 16.2581 3.22414V4.5431L9 8.7081L1.74194 4.5431V3.22414C1.74194 2.83546 1.89487 2.4627 2.1671 2.18786C2.43933 1.91302 2.80856 1.75862 3.19355 1.75862ZM14.8065 15.2414H3.19355C2.80856 15.2414 2.43933 15.087 2.1671 14.8121C1.89487 14.5373 1.74194 14.1645 1.74194 13.7759V6.56552L8.35839 10.3759C8.54937 10.4997 8.77157 10.5655 8.99855 10.5655C9.22553 10.5655 9.44773 10.4997 9.63871 10.3759L16.2581 6.56552V13.7759C16.2581 14.1645 16.1051 14.5373 15.8329 14.8121C15.5607 15.087 15.1914 15.2414 14.8065 15.2414Z" fill="#FFB400"/>
</svg>
