<svg width="26" height="31" viewBox="0 0 26 31" fill="none" xmlns="http://www.w3.org/2000/svg">
<path d="M17.2057 12.8824C16.8676 13.2205 16.5296 13.5586 16.1915 13.8967C15.3813 14.7068 14.568 15.5201 13.7579 16.3303C12.7755 17.3127 11.7963 18.2918 10.8139 19.2742C9.96551 20.1226 9.1171 20.971 8.26868 21.8195C7.85724 22.2309 7.43303 22.6392 7.02796 23.0602C7.02158 23.0666 7.0152 23.0729 7.00882 23.0793C6.65478 23.4334 6.62927 24.084 7.00882 24.4317C7.39157 24.7825 7.98482 24.8112 8.36118 24.4317C8.69927 24.0936 9.03736 23.7555 9.37545 23.4174C10.1856 22.6073 10.9989 21.7939 11.8091 20.9838C12.7914 20.0014 13.7706 19.0222 14.753 18.0399C15.6014 17.1915 16.4498 16.343 17.2982 15.4946C17.7097 15.0832 18.1339 14.6749 18.539 14.2539C18.5453 14.2475 18.5517 14.2411 18.5581 14.2348C18.9121 13.8807 18.9376 13.2301 18.5581 12.8824C18.1785 12.5316 17.5853 12.5029 17.2057 12.8824Z" fill="#FFCD4D"/>
<path d="M9.68163 15.5521C9.63697 15.5968 9.59232 15.635 9.54448 15.6765C9.42327 15.7849 9.75817 15.5298 9.55724 15.6637C9.45836 15.7307 9.3531 15.7849 9.24466 15.8328C9.32121 15.8009 9.39776 15.769 9.47431 15.7371C9.29888 15.8105 9.11708 15.8615 8.9289 15.887C9.01502 15.8743 9.09794 15.8647 9.18406 15.8519C9.01183 15.8711 8.83959 15.8711 8.66417 15.8519C8.75029 15.8647 8.83321 15.8743 8.91933 15.887C8.73115 15.8615 8.54935 15.8105 8.37392 15.7371C8.45047 15.769 8.52702 15.8009 8.60357 15.8328C8.49512 15.7849 8.38987 15.7307 8.29099 15.6637C8.09005 15.5298 8.42176 15.7849 8.30375 15.6765C8.2591 15.635 8.21126 15.5968 8.1666 15.5521C8.12195 15.5075 8.08367 15.4628 8.04221 15.415C7.93377 15.2938 8.18893 15.6287 8.05497 15.4277C7.98799 15.3288 7.93377 15.2236 7.88592 15.1151C7.91782 15.1917 7.94971 15.2682 7.98161 15.3448C7.90825 15.1694 7.85722 14.9876 7.8317 14.7994C7.84446 14.8855 7.85403 14.9684 7.86679 15.0545C7.84765 14.8823 7.84765 14.7101 7.86679 14.5347C7.85403 14.6208 7.84446 14.7037 7.8317 14.7898C7.85722 14.6016 7.90825 14.4198 7.98161 14.2444C7.94971 14.321 7.91782 14.3975 7.88592 14.474C7.93377 14.3656 7.98799 14.2604 8.05497 14.1615C8.18893 13.9605 7.93377 14.2922 8.04221 14.1742C8.08367 14.1296 8.12195 14.0817 8.1666 14.0371C8.21126 13.9924 8.25591 13.9542 8.30375 13.9127C8.42495 13.8042 8.09005 14.0594 8.29099 13.9255C8.38987 13.8585 8.49512 13.8042 8.60357 13.7564C8.52702 13.7883 8.45047 13.8202 8.37392 13.8521C8.54935 13.7787 8.73115 13.7277 8.91933 13.7022C8.83321 13.7149 8.75029 13.7245 8.66417 13.7373C8.8364 13.7181 9.00864 13.7181 9.18406 13.7373C9.09794 13.7245 9.01502 13.7149 8.9289 13.7022C9.11708 13.7277 9.29888 13.7787 9.47431 13.8521C9.39776 13.8202 9.32121 13.7883 9.24466 13.7564C9.3531 13.8042 9.45836 13.8585 9.55724 13.9255C9.75817 14.0594 9.42646 13.8042 9.54448 13.9127C9.58913 13.9542 9.63697 13.9924 9.68163 14.0371C9.72628 14.0817 9.76455 14.1264 9.80602 14.1742C9.91446 14.2954 9.6593 13.9605 9.79326 14.1615C9.86024 14.2604 9.91446 14.3656 9.9623 14.474C9.93041 14.3975 9.89851 14.321 9.86662 14.2444C9.93998 14.4198 9.99101 14.6016 10.0165 14.7898C10.0038 14.7037 9.9942 14.6208 9.98144 14.5347C10.0006 14.7069 10.0006 14.8791 9.98144 15.0545C9.9942 14.9684 10.0038 14.8855 10.0165 14.7994C9.99101 14.9876 9.93998 15.1694 9.86662 15.3448C9.89851 15.2682 9.93041 15.1917 9.9623 15.1151C9.91446 15.2236 9.86024 15.3288 9.79326 15.4277C9.6593 15.6287 9.91446 15.2969 9.80602 15.415C9.76774 15.4628 9.72628 15.5075 9.68163 15.5521C9.33078 15.9093 9.29888 16.5536 9.68163 16.9045C10.0612 17.2521 10.6608 17.2872 11.034 16.9045C11.4391 16.4898 11.758 15.9444 11.8505 15.3671C11.9589 14.7005 11.8824 14.0754 11.5953 13.4598C11.0978 12.4009 9.86981 11.6928 8.70244 11.8108C8.03264 11.8778 7.45853 12.117 6.94182 12.5508C6.49529 12.9239 6.16358 13.4789 6.02324 14.0403C5.71067 15.2969 6.23375 16.5823 7.29905 17.3C8.45685 18.0814 10.0548 17.8581 11.034 16.9013C11.3912 16.5504 11.4103 15.8934 11.034 15.5489C10.6512 15.1981 10.0644 15.1789 9.68163 15.5521Z" fill="#FFCD4D"/>
<path d="M17.4162 23.2771C17.3716 23.3217 17.3269 23.36 17.2791 23.4015C17.1579 23.5099 17.4928 23.2548 17.2919 23.3887C17.193 23.4557 17.0877 23.5099 16.9793 23.5578C17.0558 23.5259 17.1324 23.494 17.2089 23.4621C17.0335 23.5354 16.8517 23.5865 16.6635 23.612C16.7496 23.5992 16.8326 23.5897 16.9187 23.5769C16.7464 23.596 16.5742 23.596 16.3988 23.5769C16.4849 23.5897 16.5678 23.5992 16.6539 23.612C16.4658 23.5865 16.284 23.5354 16.1085 23.4621C16.1851 23.494 16.2616 23.5259 16.3382 23.5578C16.2297 23.5099 16.1245 23.4557 16.0256 23.3887C15.8247 23.2548 16.1564 23.5099 16.0384 23.4015C15.9937 23.36 15.9459 23.3217 15.9012 23.2771C15.8566 23.2324 15.8183 23.1878 15.7768 23.1399C15.6684 23.0187 15.9235 23.3536 15.7896 23.1527C15.7226 23.0538 15.6684 22.9486 15.6205 22.8401C15.6524 22.9167 15.6843 22.9932 15.7162 23.0698C15.6429 22.8943 15.5918 22.7125 15.5663 22.5244C15.5791 22.6105 15.5886 22.6934 15.6014 22.7795C15.5823 22.6073 15.5823 22.4351 15.6014 22.2596C15.5886 22.3457 15.5791 22.4287 15.5663 22.5148C15.5918 22.3266 15.6429 22.1448 15.7162 21.9694C15.6843 22.0459 15.6524 22.1225 15.6205 22.199C15.6684 22.0906 15.7226 21.9853 15.7896 21.8865C15.9235 21.6855 15.6684 22.0172 15.7768 21.8992C15.8183 21.8546 15.8566 21.8067 15.9012 21.7621C15.9459 21.7174 15.9905 21.6791 16.0384 21.6377C16.1596 21.5292 15.8247 21.7844 16.0256 21.6504C16.1245 21.5834 16.2297 21.5292 16.3382 21.4814C16.2616 21.5133 16.1851 21.5452 16.1085 21.5771C16.284 21.5037 16.4658 21.4527 16.6539 21.4272C16.5678 21.4399 16.4849 21.4495 16.3988 21.4622C16.571 21.4431 16.7433 21.4431 16.9187 21.4622C16.8326 21.4495 16.7496 21.4399 16.6635 21.4272C16.8517 21.4527 17.0335 21.5037 17.2089 21.5771C17.1324 21.5452 17.0558 21.5133 16.9793 21.4814C17.0877 21.5292 17.193 21.5834 17.2919 21.6504C17.4928 21.7844 17.1611 21.5292 17.2791 21.6377C17.3237 21.6791 17.3716 21.7174 17.4162 21.7621C17.4609 21.8067 17.4992 21.8514 17.5406 21.8992C17.6491 22.0204 17.3939 21.6855 17.5279 21.8865C17.5949 21.9853 17.6491 22.0906 17.6969 22.199C17.665 22.1225 17.6331 22.0459 17.6012 21.9694C17.6746 22.1448 17.7256 22.3266 17.7511 22.5148C17.7384 22.4287 17.7288 22.3457 17.7161 22.2596C17.7352 22.4319 17.7352 22.6041 17.7161 22.7795C17.7288 22.6934 17.7384 22.6105 17.7511 22.5244C17.7256 22.7125 17.6746 22.8943 17.6012 23.0698C17.6331 22.9932 17.665 22.9167 17.6969 22.8401C17.6491 22.9486 17.5949 23.0538 17.5279 23.1527C17.3939 23.3536 17.6491 23.0219 17.5406 23.1399C17.4992 23.1878 17.4577 23.2324 17.4162 23.2771C17.0654 23.6343 17.0335 24.2786 17.4162 24.6294C17.7958 24.9771 18.3954 25.0122 18.7686 24.6294C19.1737 24.2148 19.4926 23.6694 19.5851 23.0921C19.6936 22.4255 19.617 21.8003 19.33 21.1848C18.8324 20.1258 17.6044 19.4178 16.4371 19.5358C15.7673 19.6028 15.1931 19.842 14.6764 20.2757C14.2299 20.6489 13.8982 21.2039 13.7579 21.7653C13.4453 23.0219 13.9684 24.3073 15.0337 25.0249C16.1915 25.8064 17.7894 25.5831 18.7686 24.6263C19.1258 24.2754 19.145 23.6184 18.7686 23.2739C18.3827 22.923 17.799 22.9039 17.4162 23.2771Z" fill="#FFCD4D"/>
<path d="M25.5782 27.6021C25.5782 27.3438 25.5782 27.0854 25.5782 26.8271C25.5782 26.1445 25.5782 25.462 25.5782 24.7794C25.5782 23.8098 25.5782 22.8402 25.5782 21.8738C25.5782 20.7542 25.5782 19.6379 25.5782 18.5184C25.5782 17.3893 25.5782 16.257 25.5782 15.1279C25.5782 14.1232 25.5782 13.1185 25.5782 12.1138C25.5782 11.3707 25.5782 10.6275 25.5782 9.88753C25.5782 9.54625 25.5878 9.20178 25.5782 8.8605C25.5718 8.59258 25.4762 8.35655 25.2943 8.15561C25.2688 8.12691 25.2401 8.0982 25.2114 8.07269C25.0519 7.90683 24.8925 7.74417 24.7298 7.57831C24.111 6.9436 23.4891 6.30569 22.8703 5.67097C22.0825 4.86402 21.2947 4.05389 20.5069 3.24694C19.8307 2.55162 19.1513 1.85949 18.4751 1.16418C18.1881 0.87074 17.9138 0.558167 17.614 0.280678C17.3301 0.0191373 17.043 0 16.705 0C16.4721 0 16.2393 0 16.0096 0C15.1963 0 14.383 0 13.5697 0C12.4852 0 11.3976 0 10.3132 0C9.18725 0 8.06135 0 6.93544 0C6.00091 0 5.06957 0 4.13504 0C3.62791 0 3.11758 0 2.61045 0C2.14159 0 1.69187 0.0924963 1.27723 0.322142C0.486226 0.755917 0.0109861 1.62028 0.00141757 2.51016C-0.00177196 2.74618 0.00141757 2.98221 0.00141757 3.21823C0.00141757 3.78916 0.00141757 4.36008 0.00141757 4.93101C0.00141757 5.76028 0.00141757 6.58956 0.00141757 7.41883C0.00141757 8.42991 0.00141757 9.44099 0.00141757 10.4521C0.00141757 11.5684 0.00141757 12.6847 0.00141757 13.7979C0.00141757 14.9429 0.00141757 16.0848 0.00141757 17.2298C0.00141757 18.3238 0.00141757 19.421 0.00141757 20.515C0.00141757 21.4846 0.00141757 22.4543 0.00141757 23.4239C0.00141757 24.1925 0.00141757 24.958 0.00141757 25.7267C0.00141757 26.2147 0.00141757 26.7027 0.00141757 27.1907C0.00141757 27.3055 0.00141757 27.4203 0.00141757 27.5384C0.00141757 27.9689 0.0971033 28.3708 0.285285 28.7599C0.687165 29.5956 1.60575 30.1027 2.51157 30.1123C2.5945 30.1123 2.67424 30.1123 2.75717 30.1123C3.23879 30.1123 3.72359 30.1123 4.20521 30.1123C5.01854 30.1123 5.83506 30.1123 6.64839 30.1123C7.6786 30.1123 8.71201 30.1123 9.74223 30.1123C10.8745 30.1123 12.01 30.1123 13.1423 30.1123C14.265 30.1123 15.3877 30.1123 16.5072 30.1123C17.5023 30.1123 18.5007 30.1123 19.4958 30.1123C20.2517 30.1123 21.0076 30.1123 21.7635 30.1123C22.1654 30.1123 22.5673 30.1123 22.9692 30.1123C23.2275 30.1123 23.4923 30.0932 23.7411 30.023C24.8223 29.72 25.5623 28.7153 25.5782 27.6021C25.5846 27.1014 25.1317 26.623 24.6214 26.6453C24.0983 26.6676 23.6709 27.0663 23.6645 27.6021C23.6645 27.6755 23.6581 27.7489 23.6486 27.8222C23.6613 27.7361 23.6709 27.6532 23.6836 27.5671C23.6645 27.6946 23.6294 27.819 23.5816 27.9402C23.6135 27.8637 23.6454 27.7871 23.6773 27.7106C23.639 27.7999 23.5943 27.8892 23.5401 27.9689C23.4859 28.0519 23.4125 28.0806 23.5911 27.9083C23.5561 27.9402 23.5274 27.9817 23.4923 28.0168C23.4827 28.0264 23.3934 28.1188 23.3838 28.1157C23.3902 28.1188 23.6135 27.953 23.4444 28.0646C23.3615 28.1189 23.2754 28.1635 23.1861 28.2018C23.2626 28.1699 23.3392 28.138 23.4157 28.1061C23.2945 28.1539 23.1733 28.189 23.0425 28.2082C23.1287 28.1954 23.2116 28.1858 23.2977 28.1731C23.0585 28.205 22.8065 28.189 22.5673 28.189C22.0761 28.189 21.5849 28.189 21.0906 28.189C19.4416 28.189 17.7958 28.189 16.1468 28.189C14.1438 28.189 12.1439 28.189 10.1409 28.189C8.41538 28.189 6.69304 28.189 4.96751 28.189C4.15418 28.189 3.34085 28.1922 2.52433 28.189C2.44459 28.189 2.36167 28.1826 2.28193 28.1731C2.36805 28.1858 2.45097 28.1954 2.53709 28.2082C2.40951 28.189 2.28512 28.1539 2.16391 28.1061C2.24046 28.138 2.31701 28.1699 2.39356 28.2018C2.30425 28.1635 2.21495 28.1189 2.13521 28.0646C2.05228 28.0104 2.02358 27.937 2.19581 28.1157C2.16391 28.0806 2.12245 28.0519 2.08737 28.0168C2.0778 28.0072 1.9853 27.9179 1.98849 27.9083C1.9853 27.9147 2.15116 28.138 2.03952 27.9689C1.9853 27.886 1.94065 27.7999 1.90237 27.7106C1.93427 27.7871 1.96616 27.8637 1.99806 27.9402C1.95022 27.819 1.91513 27.6978 1.896 27.5671C1.90875 27.6532 1.91832 27.7361 1.93108 27.8222C1.896 27.5447 1.91513 27.2513 1.91513 26.9738C1.91513 26.371 1.91513 25.7682 1.91513 25.1685C1.91513 24.2627 1.91513 23.3601 1.91513 22.4543C1.91513 21.3507 1.91513 20.2471 1.91513 19.1435C1.91513 17.9283 1.91513 16.7131 1.91513 15.4979C1.91513 14.2763 1.91513 13.0547 1.91513 11.8331C1.91513 10.6913 1.91513 9.54625 1.91513 8.4044C1.91513 7.44435 1.91513 6.48749 1.91513 5.52745C1.91513 4.8417 1.91513 4.15595 1.91513 3.46701C1.91513 3.15444 1.91513 2.84187 1.91513 2.52929C1.91513 2.44637 1.92151 2.36344 1.93108 2.28051C1.91832 2.36663 1.90875 2.44955 1.896 2.53567C1.91513 2.40809 1.95022 2.2837 1.99806 2.1625C1.96616 2.23905 1.93427 2.31559 1.90237 2.39214C1.94065 2.30284 1.9853 2.21353 2.03952 2.13379C2.09375 2.05086 2.1671 2.02216 1.98849 2.19439C2.02358 2.1625 2.05228 2.12103 2.08737 2.08595C2.09694 2.07638 2.18624 1.98388 2.19581 1.98707C2.18943 1.98388 1.96616 2.14974 2.13521 2.03811C2.21814 1.98388 2.30425 1.93923 2.39356 1.90096C2.31701 1.93285 2.24046 1.96475 2.16391 1.99664C2.28512 1.9488 2.40632 1.91371 2.53709 1.89458C2.45097 1.90734 2.36805 1.9169 2.28193 1.92966C2.46692 1.90734 2.6551 1.91371 2.84328 1.91371C3.18137 1.91371 3.51946 1.91371 3.86074 1.91371C5.00578 1.91371 6.15082 1.91371 7.29586 1.91371C8.69606 1.91371 10.0963 1.91371 11.4933 1.91371C12.7085 1.91371 13.9237 1.91371 15.1389 1.91371C15.729 1.91371 16.3254 1.92966 16.9155 1.91371C16.925 1.91371 16.9314 1.91371 16.941 1.91371C16.7145 1.82122 16.4913 1.72553 16.2648 1.63304C16.52 1.89458 16.7719 2.15293 17.0271 2.41447C17.6363 3.03962 18.2487 3.66795 18.8579 4.2931C19.5979 5.05221 20.3346 5.80812 21.0746 6.56723C21.7157 7.22746 22.36 7.8845 23.0011 8.54474C23.3105 8.86369 23.6135 9.19221 23.9324 9.50159C23.9356 9.50478 23.942 9.51116 23.9452 9.51435C23.8527 9.2879 23.757 9.06463 23.6645 8.83817C23.6645 9.46332 23.6645 10.0917 23.6645 10.7168C23.6645 12.2095 23.6645 13.7022 23.6645 15.1949C23.6645 17.0002 23.6645 18.8022 23.6645 20.6075C23.6645 22.1704 23.6645 23.7364 23.6645 25.2993C23.6645 26.0584 23.6517 26.8175 23.6645 27.5766C23.6645 27.5862 23.6645 27.599 23.6645 27.6085C23.6645 28.1093 24.1047 28.5877 24.6214 28.5654C25.1413 28.5367 25.5782 28.138 25.5782 27.6021Z" fill="#FFCD4D"/>
<path d="M25.2975 8.15559C25.0424 7.89405 24.7904 7.6357 24.5352 7.37416C23.926 6.74901 23.3136 6.12068 22.7044 5.49553C21.9645 4.73642 21.2245 3.9805 20.4877 3.2214C19.8466 2.56117 19.2023 1.90412 18.5612 1.24389C18.2519 0.924939 17.9488 0.596418 17.6299 0.287035C17.6267 0.283845 17.6203 0.277466 17.6171 0.274277C17.3492 -2.26069e-05 16.9186 -0.0701922 16.571 0.076526C16.2201 0.226434 15.9777 0.570902 15.9777 0.953645C15.9777 1.77654 15.9777 2.59944 15.9777 3.42234C15.9777 4.58651 15.9777 5.7475 15.9777 6.91168C15.9777 7.0265 15.9777 7.13813 15.9777 7.25296C15.9777 7.68673 16.083 8.0918 16.2775 8.47454C16.7145 9.32296 17.6299 9.78863 18.5612 9.78863C19.5787 9.78863 20.5962 9.78863 21.6136 9.78863C22.596 9.78863 23.5815 9.7982 24.5639 9.78863C24.5831 9.78863 24.599 9.78863 24.6181 9.78863C25.1189 9.78863 25.5973 9.34847 25.575 8.83177C25.5527 8.31188 25.154 7.87491 24.6181 7.87491C23.9101 7.87491 23.1988 7.87491 22.4907 7.87491C21.3776 7.87491 20.2644 7.87491 19.1513 7.87491C18.8579 7.87491 18.5485 7.89724 18.2582 7.85897C18.3443 7.87172 18.4273 7.88129 18.5134 7.89405C18.3858 7.87491 18.2614 7.83983 18.1402 7.79199C18.2168 7.82388 18.2933 7.85578 18.3699 7.88767C18.2806 7.8494 18.1913 7.80474 18.1115 7.75052C18.0286 7.6963 17.9999 7.62294 18.1721 7.80155C18.1402 7.76647 18.0988 7.73776 18.0637 7.70268C18.0541 7.69311 17.9616 7.6038 17.9648 7.59424C17.9616 7.60062 18.1275 7.82388 18.0158 7.65484C17.9616 7.57191 17.917 7.48579 17.8787 7.39648C17.9106 7.47303 17.9425 7.54958 17.9744 7.62613C17.9265 7.50493 17.8914 7.38373 17.8723 7.25296C17.8851 7.33907 17.8946 7.422 17.9074 7.50812C17.8755 7.25615 17.8914 6.99142 17.8914 6.73944C17.8914 6.24188 17.8914 5.74431 17.8914 5.24675C17.8914 4.08576 17.8914 2.92158 17.8914 1.7606C17.8914 1.49268 17.8914 1.22475 17.8914 0.956835C17.346 1.18329 16.8038 1.40656 16.2584 1.63301C16.5136 1.89456 16.7655 2.15291 17.0207 2.41445C17.6299 3.03959 18.2423 3.66793 18.8515 4.29308C19.5915 5.05218 20.3314 5.8081 21.0682 6.56721C21.7093 7.22744 22.3536 7.88448 22.9947 8.54471C23.3041 8.86367 23.6103 9.189 23.926 9.50157C23.9292 9.50476 23.9356 9.51114 23.9388 9.51433C24.2896 9.87475 24.9467 9.89069 25.2911 9.51433C25.6516 9.12202 25.6707 8.53833 25.2975 8.15559Z" fill="#FFCD4D"/>
</svg>
