<svg width="709" height="106" viewBox="0 0 709 106" fill="none" xmlns="http://www.w3.org/2000/svg">
<g filter="url(#filter0_d_19_8)">
<path d="M22.695 34.4H27.175C32.4657 34.4 37.159 35.1253 41.255 36.576C45.4363 38.0267 48.935 40.032 51.751 42.592C54.567 45.152 56.7003 48.1813 58.151 51.68C59.687 55.1787 60.455 59.0187 60.455 63.2C60.455 67.3813 59.687 71.2213 58.151 74.72C56.7003 78.2187 54.567 81.248 51.751 83.808C48.935 86.368 45.4363 88.3733 41.255 89.824C37.159 91.2747 32.4657 92 27.175 92H4.135V90.72L11.815 88.8V5.6L4.135 3.67999V2.39999H50.855C50.6843 3.16799 50.5563 4.064 50.471 5.088C50.3857 6.02666 50.3003 7.13599 50.215 8.41599C50.215 9.61066 50.215 11.0187 50.215 12.64C50.215 13.8347 50.215 15.0293 50.215 16.224C50.3003 17.3333 50.3857 18.4 50.471 19.424C50.5563 20.6187 50.6843 21.7707 50.855 22.88H49.575C47.3563 20.6613 45.5217 18.016 44.071 14.944C42.6203 11.872 41.895 8.544 41.895 4.96H22.695V34.4ZM22.695 89.44H27.175C33.9163 89.44 39.1217 87.392 42.791 83.296C46.4603 79.2 48.295 72.5013 48.295 63.2C48.295 53.8987 46.4603 47.2 42.791 43.104C39.1217 39.008 33.9163 36.96 27.175 36.96H22.695V89.44ZM98.647 59.744L114.775 6.88L106.455 3.67999V2.39999H125.655V3.67999L117.335 6.88L95.959 76.64C94.7643 80.48 93.527 83.7227 92.247 86.368C90.967 88.928 89.6017 91.0187 88.151 92.64C86.7003 94.2613 85.079 95.4133 83.287 96.096C81.5803 96.7787 79.703 97.12 77.655 97.12C77.143 97.12 76.6737 97.0773 76.247 96.992C75.8203 96.992 75.3937 96.9493 74.967 96.864C74.5403 96.7787 74.1563 96.6507 73.815 96.48L71.895 87.52C72.2363 87.6907 72.6203 87.8187 73.047 87.904C73.4737 87.9893 73.9003 88.0747 74.327 88.16C74.7537 88.16 75.223 88.16 75.735 88.16C81.1963 88.16 85.207 87.136 87.767 85.088C90.327 83.04 92.2043 80.224 93.399 76.64L66.775 5.6L59.095 3.67999V2.39999H85.975V3.67999L78.295 5.6L98.647 59.744ZM150.773 50.272L130.165 5.6L122.485 3.67999V2.39999H150.005V3.67999L142.325 5.6L157.045 37.6L172.405 6.88L164.085 3.67999V2.39999H183.285V3.67999L174.965 6.88L158.325 40.288L180.725 88.8L188.405 90.72V92H160.885V90.72L168.565 88.8L151.925 52.832L134.645 87.52L142.965 90.72V92H123.765V90.72L132.085 87.52L150.773 50.272ZM211.445 88.8L219.125 90.72V92H192.885V90.72L200.565 88.8V5.6L192.885 3.67999V2.39999H242.165C241.994 3.16799 241.866 4.064 241.781 5.088C241.696 6.02666 241.61 7.13599 241.525 8.41599C241.525 9.61066 241.525 11.0187 241.525 12.64C241.525 13.8347 241.525 15.0293 241.525 16.224C241.61 17.3333 241.696 18.4 241.781 19.424C241.866 20.6187 241.994 21.7707 242.165 22.88H240.885C238.666 20.6613 236.832 18.016 235.381 14.944C233.93 11.872 233.205 8.544 233.205 4.96H211.445V88.8ZM255.03 63.328H279.862L267.062 20.96L255.03 63.328ZM280.63 65.76H254.39L247.99 87.52L256.31 90.72V92H237.11V90.72L245.43 87.52L270.39 0.479996H272.31L299.19 88.8L306.87 90.72V92H279.99V90.72L287.67 88.8L280.63 65.76ZM324.73 36.96C324.73 45.2373 324.517 52.448 324.09 58.592C323.749 64.6507 323.194 69.8133 322.426 74.08C321.743 78.3467 320.89 81.8453 319.866 84.576C318.842 87.2213 317.733 89.312 316.538 90.848C315.343 92.2987 314.063 93.28 312.698 93.792C311.418 94.304 310.095 94.56 308.73 94.56C308.218 94.56 307.749 94.5173 307.322 94.432C306.895 94.432 306.469 94.3893 306.042 94.304C305.615 94.2187 305.231 94.0907 304.89 93.92L302.97 84.32C303.311 84.4907 303.695 84.6187 304.122 84.704C304.549 84.7893 304.975 84.8747 305.402 84.96C305.829 84.96 306.298 84.96 306.81 84.96C309.029 84.96 311.077 84.4053 312.954 83.296C314.831 82.1867 316.453 79.968 317.818 76.64C319.183 73.2267 320.25 68.3627 321.018 62.048C321.786 55.7333 322.17 47.3707 322.17 36.96V6.24L313.85 3.67999V2.39999H366.97V3.67999L359.29 5.6V88.8L366.97 90.72V92H340.73V90.72L348.41 88.8V4.96H324.73V36.96ZM409.87 88.8L417.55 90.72V92H391.31V90.72L398.99 88.8V4.96H385.55C385.55 8.544 384.825 11.872 383.374 14.944C381.923 18.016 380.089 20.6613 377.87 22.88H376.59C376.675 21.7707 376.761 20.6187 376.846 19.424C376.931 18.4 377.017 17.3333 377.102 16.224C377.187 15.0293 377.23 13.8347 377.23 12.64C377.23 11.0187 377.187 9.61066 377.102 8.41599C377.017 7.13599 376.931 6.02666 376.846 5.088C376.761 4.064 376.675 3.16799 376.59 2.39999H432.27C432.099 3.16799 431.971 4.064 431.886 5.088C431.801 6.02666 431.715 7.13599 431.63 8.41599C431.63 9.61066 431.63 11.0187 431.63 12.64C431.63 13.8347 431.63 15.0293 431.63 16.224C431.715 17.3333 431.801 18.4 431.886 19.424C431.971 20.6187 432.099 21.7707 432.27 22.88H430.99C428.771 20.6613 426.937 18.016 425.486 14.944C424.035 11.872 423.31 8.544 423.31 4.96H409.87V88.8ZM486.045 89.44C486.045 85.856 486.77 82.528 488.221 79.456C489.672 76.384 491.506 73.7387 493.725 71.52H495.005C494.834 72.6293 494.706 73.7813 494.621 74.976C494.536 76 494.45 77.1093 494.365 78.304C494.365 79.4987 494.365 80.6507 494.365 81.76C494.365 83.3813 494.365 84.832 494.365 86.112C494.45 87.3067 494.536 88.3733 494.621 89.312C494.706 90.336 494.834 91.232 495.005 92H441.885V90.72L449.565 88.8V5.6L441.885 3.67999V2.39999H493.725C493.554 3.16799 493.426 4.064 493.341 5.088C493.256 6.02666 493.17 7.13599 493.085 8.41599C493.085 9.61066 493.085 11.0187 493.085 12.64C493.085 13.8347 493.085 15.0293 493.085 16.224C493.17 17.3333 493.256 18.4 493.341 19.424C493.426 20.6187 493.554 21.7707 493.725 22.88H492.445C490.226 20.6613 488.392 18.016 486.941 14.944C485.49 11.872 484.765 8.544 484.765 4.96H460.445V43.36H472.605L478.365 31.84H479.645V57.44H478.365L472.605 45.92H460.445V89.44H486.045ZM525.07 60V88.8L532.75 90.72V92H506.51V90.72L514.19 88.8V5.6L506.51 3.67999V2.39999H529.55C534.841 2.39999 539.534 3.12533 543.63 4.576C547.811 6.02666 551.31 8.032 554.126 10.592C556.942 13.152 559.075 16.1813 560.526 19.68C562.062 23.1787 562.83 27.0187 562.83 31.2C562.83 35.3813 562.062 39.2213 560.526 42.72C559.075 46.2187 556.942 49.248 554.126 51.808C551.31 54.368 547.811 56.3733 543.63 57.824C539.534 59.2747 534.841 60 529.55 60H525.07ZM525.07 57.44H529.55C536.291 57.44 541.497 55.392 545.166 51.296C548.835 47.2 550.67 40.5013 550.67 31.2C550.67 21.8987 548.835 15.2 545.166 11.104C541.497 7.008 536.291 4.96 529.55 4.96H525.07V57.44ZM589.695 75.36V88.8L597.375 90.72V92H571.135V90.72L578.815 88.8V5.6L571.135 3.67999V2.39999H597.375V3.67999L589.695 5.6V70.24L615.935 17.76V5.6L608.255 3.67999V2.39999H634.495V3.67999L626.815 5.6V88.8L634.495 90.72V92H608.255V90.72L615.935 88.8V22.88L589.695 75.36ZM704.89 2.39999V3.67999L697.21 5.6V88.8L704.89 90.72V92H678.65V90.72L686.33 88.8V47.2H681.21C678.309 47.2 675.834 47.4987 673.786 48.096C671.738 48.6933 670.031 49.632 668.666 50.912C667.386 52.192 666.362 53.856 665.594 55.904C664.826 57.8667 664.271 60.2987 663.93 63.2L661.37 85.6C661.114 87.8187 660.047 89.7813 658.17 91.488C656.378 93.1093 654.031 93.92 651.13 93.92C649.338 93.92 647.845 93.6213 646.65 93.024C645.455 92.4267 644.474 91.7867 643.706 91.104C642.767 90.2507 642.042 89.2693 641.53 88.16L642.81 86.88C643.151 87.5627 643.535 88.1173 643.962 88.544C644.389 88.9707 644.815 89.3547 645.242 89.696C645.669 89.952 646.138 90.08 646.65 90.08C647.418 90.08 648.101 89.7387 648.698 89.056C649.295 88.3733 649.679 87.2213 649.85 85.6L652.41 63.2C652.837 59.2747 654.202 56.16 656.506 53.856C658.81 51.552 661.285 49.8027 663.93 48.608C667.002 47.2427 670.415 46.3467 674.17 45.92C669.477 45.4933 665.295 44.4693 661.626 42.848C660.09 42.1653 658.554 41.312 657.018 40.288C655.567 39.264 654.245 38.0267 653.05 36.576C651.941 35.04 651.002 33.3333 650.234 31.456C649.551 29.4933 649.21 27.2747 649.21 24.8C649.21 21.728 649.85 18.8693 651.13 16.224C652.41 13.4933 654.373 11.104 657.018 9.056C659.663 7.008 662.991 5.38666 667.002 4.19199C671.013 2.99733 675.749 2.39999 681.21 2.39999H704.89ZM661.37 24.8C661.37 31.2 663.077 36.1067 666.49 39.52C669.903 42.9333 674.81 44.64 681.21 44.64H686.33V4.96H681.21C674.81 4.96 669.903 6.66666 666.49 10.08C663.077 13.4933 661.37 18.4 661.37 24.8Z" fill="black"/>
</g>
<defs>
<filter id="filter0_d_19_8" x="0.13501" y="0.47998" width="708.755" height="104.64" filterUnits="userSpaceOnUse" color-interpolation-filters="sRGB">
<feFlood flood-opacity="0" result="BackgroundImageFix"/>
<feColorMatrix in="SourceAlpha" type="matrix" values="0 0 0 0 0 0 0 0 0 0 0 0 0 0 0 0 0 0 127 0" result="hardAlpha"/>
<feOffset dy="4"/>
<feGaussianBlur stdDeviation="2"/>
<feComposite in2="hardAlpha" operator="out"/>
<feColorMatrix type="matrix" values="0 0 0 0 0 0 0 0 0 0 0 0 0 0 0 0 0 0 0.25 0"/>
<feBlend mode="normal" in2="BackgroundImageFix" result="effect1_dropShadow_19_8"/>
<feBlend mode="normal" in="SourceGraphic" in2="effect1_dropShadow_19_8" result="shape"/>
</filter>
</defs>
</svg>
